<?xml version="1.0" encoding="UTF-8"?>
<svg width="18px" height="15px" viewBox="0 0 18 15" version="1.1" xmlns="http://www.w3.org/2000/svg" xmlns:xlink="http://www.w3.org/1999/xlink">
    <!-- Generator: Sketch 57.1 (83088) - https://sketch.com -->
    <title>上传</title>
    <desc>Created with Sketch.</desc>
    <g id="boss管理系统" stroke="none" stroke-width="1" fill="none" fill-rule="evenodd">
        <g id="新建菜单模板" transform="translate(-540.000000, -594.000000)" fill="#999999" fill-rule="nonzero">
            <g id="上传" transform="translate(540.000000, 594.000000)">
                <path d="M14.3538758,4.61031175 C13.813455,1.89248601 11.6316814,0 9.01596393,0 C6.43640845,0 4.10395992,2.05835332 3.55349403,4.80615508 C1.27729749,5.25779376 -0.233470201,7.25219824 0.0297087462,9.48441247 C0.298914692,11.7785771 2.2516623,13.5091926 4.57406583,13.5091926 L5.13457671,13.5091926 C5.51628664,13.5091926 5.82768157,13.1994404 5.82768157,12.8197442 C5.82768157,12.440048 5.51628664,12.1302958 5.13457671,12.1302958 L4.7187138,12.1302958 C2.93472216,12.1302958 1.44203546,10.7513989 1.39181047,9.0567546 C1.36770248,8.26338929 1.63891742,7.55195843 2.17732931,7.00039968 C2.77802019,6.38489209 3.63184502,6.04716227 4.58611982,6.04716227 L4.6885788,6.04916067 L4.82318178,6.05315747 L4.82920878,5.91926459 C4.95175775,3.37729816 6.73976739,1.46083133 8.98582893,1.46083133 C11.4769884,1.46083133 12.8350722,3.60311751 13.0761521,5.72741807 L13.0902151,5.84932054 L13.2147731,5.84932054 C14.1590029,5.84932054 15.1152867,6.2529976 15.7742386,6.92845723 C16.3548394,7.52398082 16.6622164,8.2813749 16.6401174,9.0567546 C16.5898924,10.7513989 15.0972057,12.1302958 13.3132141,12.1302958 L12.8973511,12.1302958 C12.5156412,12.1302958 12.2042463,12.440048 12.2042463,12.8197442 C12.2042463,13.1994404 12.5156412,13.5091926 12.8973511,13.5091926 L13.451835,13.5091926 C15.8264726,13.5031974 17.8173911,11.7306155 17.9861471,9.47641886 C18.1589211,7.15427658 16.7023964,5.20783373 14.3538758,4.61031175 Z M10.4905696,9.48641087 C10.3258317,9.48641087 10.1711387,9.42246203 10.0546167,9.30455635 L9.54834882,8.80095923 L9.54834882,14.3764988 C9.54633982,14.716227 9.26507988,14.9960032 8.92354995,15 C8.58603802,15 8.29875107,14.7142286 8.29875107,14.3764988 L8.29875107,8.80095923 L7.79047418,9.30655476 C7.55341222,9.5343725 7.14759431,9.5323741 6.91254135,9.30255795 C6.79601938,9.18864908 6.72771339,9.02877698 6.72570439,8.86490807 C6.72570439,8.70103917 6.79200138,8.54316547 6.90852335,8.42725819 L8.48357904,6.85851319 C8.59809201,6.74460432 8.75278498,6.68265388 8.91953195,6.68265388 L8.93761294,6.68265388 C9.09632391,6.68265388 9.24900788,6.74660272 9.35950286,6.85851319 L10.9345585,8.42525979 C11.1716205,8.66706635 11.1696115,9.058753 10.9305405,9.29856115 C10.8200456,9.41846523 10.6593256,9.48641087 10.4905696,9.48641087 L10.4905696,9.48641087 Z" id="形状"></path>
            </g>
        </g>
    </g>
</svg>