<?xml version="1.0" encoding="UTF-8"?>
<svg width="44px" height="44px" viewBox="0 0 44 44" version="1.1" xmlns="http://www.w3.org/2000/svg" xmlns:xlink="http://www.w3.org/1999/xlink">
    <!-- Generator: Sketch 57.1 (83088) - https://sketch.com -->
    <title>警示</title>
    <desc>Created with Sketch.</desc>
    <g id="boss管理系统" stroke="none" stroke-width="1" fill="none" fill-rule="evenodd">
        <g id="删除账号" transform="translate(-443.000000, -588.000000)" fill="#F7B500" fill-rule="nonzero">
            <g id="编组-11" transform="translate(394.000000, 403.000000)">
                <g id="警示" transform="translate(49.000000, 185.000000)">
                    <path d="M22.0244748,26.8400312 C22.1100305,26.8449201 22.1906971,26.8889203 22.2786972,26.8889203 L21.7702517,26.8889203 C21.8606963,26.8889203 21.9364739,26.8449202 22.0220299,26.8400312 L22.0220297,26.8400312 C20.7716763,26.713495 19.8014108,25.692326 19.7389169,24.4371386 L19.176696,12.2271244 L19.176696,12.2271243 C19.1105167,10.9395427 20.1006584,9.84210664 21.3882356,9.7759261 C21.4332394,9.77361298 21.4783008,9.77244756 21.5233635,9.7728988 L22.6526996,9.7728988 L22.6526996,9.7728988 C23.9174347,9.74804277 24.9628527,10.7531632 24.9877101,12.0178983 C24.9890817,12.0876869 24.9872623,12.1575018 24.9822577,12.2271241 L24.3295917,24.4371383 L24.3295917,24.4371372 C24.2443451,25.6910226 23.2715839,26.7029464 22.022034,26.8375849 L22.0244748,26.8400312 Z M22.0000304,34.2222429 L22.0000305,34.2222429 C20.6499981,34.222422 19.5554366,33.1281499 19.5552605,31.7781217 C19.5550814,30.4280893 20.6493535,29.3335279 21.9993817,29.3333517 C21.9995977,29.3333517 21.9998138,29.3333517 22.0000299,29.3333517 L22.00003,29.3333517 C23.3500624,29.3335308 24.4443317,30.4280936 24.4441512,31.7781217 C24.4439722,33.1279007 23.3498046,34.2220668 22.00003,34.2222429 L22.0000304,34.2222429 Z M4.7695368e-06,22.0000256 L4.7695368e-06,22.0000289 C4.7695368e-06,34.1503165 9.84974279,44.0000545 22.0000304,44.0000545 C34.1503179,44.0000545 44.000056,34.1503165 44.000056,22.0000289 L44.000056,22.0000323 C44.000056,9.84974469 34.1503179,6.67045073e-06 22.0000304,6.67045073e-06 C9.84974279,6.67045073e-06 4.7695368e-06,9.84974469 4.7695368e-06,22.0000323 L4.7695368e-06,22.0000256 Z" id="形状"></path>
                </g>
            </g>
        </g>
    </g>
</svg>